{
    "asset" : {
        "generator" : "Khronos glTF Blender I/O v3.3.32",
        "version" : "2.0"
    },
    "extensionsUsed" : [
        "KHR_materials_specular",
        "KHR_materials_ior"
    ],
    "scene" : 0,
    "scenes" : [
        {
            "name" : "Scene",
            "nodes" : [
                0,
                1,
                2
            ]
        }
    ],
    "nodes" : [
        {
            "mesh" : 0,
            "name" : "bee_obj",
            "rotation" : [
                0.7071068286895752,
                0,
                0,
                0.7071067094802856
            ]
        },
        {
            "mesh" : 1,
            "name" : "bee_wing",
            "rotation" : [
                0.7071068286895752,
                0,
                0,
                0.7071067094802856
            ],
            "scale" : [
                0.08446851372718811,
                0.08446851372718811,
                0.08446851372718811
            ],
            "translation" : [
                0.029445599764585495,
                0.37132853269577026,
                0.11952205002307892
            ]
        },
        {
            "mesh" : 2,
            "name" : "bee_wing.001",
            "rotation" : [
                -0.011866670101881027,
                -0.6779787540435791,
                -0.73383629322052,
                0.0410895049571991
            ],
            "scale" : [
                0.08446851372718811,
                0.08446851372718811,
                0.08446851372718811
            ],
            "translation" : [
                -0.02923528105020523,
                0.29948532581329346,
                0.14424315094947815
            ]
        }
    ],
    "materials" : [
        {
            "doubleSided" : true,
            "extensions" : {
                "KHR_materials_specular" : {
                    "specularColorFactor" : [
                        0,
                        0,
                        0
                    ]
                },
                "KHR_materials_ior" : {
                    "ior" : 1.4500000476837158
                }
            },
            "name" : "defaultMat",
            "pbrMetallicRoughness" : {
                "baseColorTexture" : {
                    "index" : 0
                },
                "metallicFactor" : 0
            }
        },
        {
            "doubleSided" : true,
            "extensions" : {
                "KHR_materials_specular" : {
                    "specularColorFactor" : [
                        0,
                        0,
                        0
                    ]
                },
                "KHR_materials_ior" : {
                    "ior" : 1.4500000476837158
                }
            },
            "name" : "defaultMat.001",
            "pbrMetallicRoughness" : {
                "baseColorFactor" : [
                    0.800000011920929,
                    0.800000011920929,
                    0.800000011920929,
                    1
                ],
                "metallicFactor" : 0
            }
        },
        {
            "doubleSided" : true,
            "extensions" : {
                "KHR_materials_specular" : {
                    "specularColorFactor" : [
                        0,
                        0,
                        0
                    ]
                },
                "KHR_materials_ior" : {
                    "ior" : 1.4500000476837158
                }
            },
            "name" : "defaultMat.002",
            "pbrMetallicRoughness" : {
                "baseColorFactor" : [
                    0.800000011920929,
                    0.800000011920929,
                    0.800000011920929,
                    1
                ],
                "metallicFactor" : 0
            }
        }
    ],
    "meshes" : [
        {
            "name" : "bee_obj",
            "primitives" : [
                {
                    "attributes" : {
                        "POSITION" : 0,
                        "NORMAL" : 1,
                        "TEXCOORD_0" : 2,
                        "COLOR_0" : 3
                    },
                    "indices" : 4,
                    "material" : 0
                }
            ]
        },
        {
            "name" : "bee_wing",
            "primitives" : [
                {
                    "attributes" : {
                        "POSITION" : 5,
                        "NORMAL" : 6,
                        "TEXCOORD_0" : 7,
                        "COLOR_0" : 8
                    },
                    "indices" : 9,
                    "material" : 1
                }
            ]
        },
        {
            "name" : "bee_wing.001",
            "primitives" : [
                {
                    "attributes" : {
                        "POSITION" : 10,
                        "NORMAL" : 11,
                        "TEXCOORD_0" : 12,
                        "COLOR_0" : 13
                    },
                    "indices" : 9,
                    "material" : 2
                }
            ]
        }
    ],
    "textures" : [
        {
            "sampler" : 0,
            "source" : 0
        }
    ],
    "images" : [
        {
            "bufferView" : 5,
            "mimeType" : "image/png",
            "name" : "defaultMat Base Color"
        }
    ],
    "accessors" : [
        {
            "bufferView" : 0,
            "componentType" : 5126,
            "count" : 40908,
            "max" : [
                0.4919506907463074,
                1.0219122171401978,
                0.44390690326690674
            ],
            "min" : [
                -0.4919084310531616,
                -0.9910582900047302,
                -0.4374556839466095
            ],
            "type" : "VEC3"
        },
        {
            "bufferView" : 1,
            "componentType" : 5126,
            "count" : 40908,
            "type" : "VEC3"
        },
        {
            "bufferView" : 2,
            "componentType" : 5126,
            "count" : 40908,
            "type" : "VEC2"
        },
        {
            "bufferView" : 3,
            "componentType" : 5126,
            "count" : 40908,
            "normalized" : false,
            "type" : "VEC4"
        },
        {
            "bufferView" : 4,
            "componentType" : 5123,
            "count" : 61362,
            "type" : "SCALAR"
        },
        {
            "bufferView" : 6,
            "componentType" : 5126,
            "count" : 2036,
            "max" : [
                -0.4388774633407593,
                3.70974063873291,
                0.5011012554168701
            ],
            "min" : [
                -8.563383102416992,
                -4.029287815093994,
                0.05204455927014351
            ],
            "type" : "VEC3"
        },
        {
            "bufferView" : 7,
            "componentType" : 5126,
            "count" : 2036,
            "type" : "VEC3"
        },
        {
            "bufferView" : 8,
            "componentType" : 5126,
            "count" : 2036,
            "type" : "VEC2"
        },
        {
            "bufferView" : 9,
            "componentType" : 5126,
            "count" : 2036,
            "normalized" : false,
            "type" : "VEC4"
        },
        {
            "bufferView" : 10,
            "componentType" : 5123,
            "count" : 3054,
            "type" : "SCALAR"
        },
        {
            "bufferView" : 11,
            "componentType" : 5126,
            "count" : 2036,
            "max" : [
                -0.4388774633407593,
                3.70974063873291,
                0.5011012554168701
            ],
            "min" : [
                -8.563383102416992,
                -4.029287815093994,
                0.05204455927014351
            ],
            "type" : "VEC3"
        },
        {
            "bufferView" : 12,
            "componentType" : 5126,
            "count" : 2036,
            "type" : "VEC3"
        },
        {
            "bufferView" : 13,
            "componentType" : 5126,
            "count" : 2036,
            "type" : "VEC2"
        },
        {
            "bufferView" : 14,
            "componentType" : 5126,
            "count" : 2036,
            "normalized" : false,
            "type" : "VEC4"
        }
    ],
    "bufferViews" : [
        {
            "buffer" : 0,
            "byteLength" : 490896,
            "byteOffset" : 0,
            "target" : 34962
        },
        {
            "buffer" : 0,
            "byteLength" : 490896,
            "byteOffset" : 490896,
            "target" : 34962
        },
        {
            "buffer" : 0,
            "byteLength" : 327264,
            "byteOffset" : 981792,
            "target" : 34962
        },
        {
            "buffer" : 0,
            "byteLength" : 654528,
            "byteOffset" : 1309056,
            "target" : 34962
        },
        {
            "buffer" : 0,
            "byteLength" : 122724,
            "byteOffset" : 1963584,
            "target" : 34963
        },
        {
            "buffer" : 0,
            "byteLength" : 44373,
            "byteOffset" : 2086308
        },
        {
            "buffer" : 0,
            "byteLength" : 24432,
            "byteOffset" : 2130684,
            "target" : 34962
        },
        {
            "buffer" : 0,
            "byteLength" : 24432,
            "byteOffset" : 2155116,
            "target" : 34962
        },
        {
            "buffer" : 0,
            "byteLength" : 16288,
            "byteOffset" : 2179548,
            "target" : 34962
        },
        {
            "buffer" : 0,
            "byteLength" : 32576,
            "byteOffset" : 2195836,
            "target" : 34962
        },
        {
            "buffer" : 0,
            "byteLength" : 6108,
            "byteOffset" : 2228412,
            "target" : 34963
        },
        {
            "buffer" : 0,
            "byteLength" : 24432,
            "byteOffset" : 2234520,
            "target" : 34962
        },
        {
            "buffer" : 0,
            "byteLength" : 24432,
            "byteOffset" : 2258952,
            "target" : 34962
        },
        {
            "buffer" : 0,
            "byteLength" : 16288,
            "byteOffset" : 2283384,
            "target" : 34962
        },
        {
            "buffer" : 0,
            "byteLength" : 32576,
            "byteOffset" : 2299672,
            "target" : 34962
        }
    ],
    "samplers" : [
        {
            "magFilter" : 9729,
            "minFilter" : 9987
        }
    ],
    "buffers" : [
        {
            "byteLength" : 2332248,
            "uri" : "data:application/octet-stream;base64,"
        }
    ]
}
